<svg xmlns="http://www.w3.org/2000/svg" viewBox="0 0 61 50" fill="#fff"><rect class="cls-1" x="15.52" y="13.78" width="3.28" height="19.3" rx="1.61" ry="1.61"/><rect class="cls-1" x="10.72" y="16.37" width="3.28" height="14.83" rx="1.61" ry="1.61"/><path class="cls-1" d="M46,10H24.81a4.34,4.34,0,0,0-4.34,4.34V31.93a4.34,4.34,0,0,0,4.34,4.34h.61L29.11,40l3.79-3.73H46a4.33,4.33,0,0,0,4.33-4.34V14.34A4.33,4.33,0,0,0,46,10Zm-1.5,20.13a5.87,5.87,0,0,1-1.31,1.28,3.77,3.77,0,0,1-1.9.71,5.24,5.24,0,0,1-2.16-.24A13.49,13.49,0,0,1,37,30.93c-.57-.36-1.38-.88-1.83-1.24s-1.41-1.13-1.85-1.53-1.79-1.7-2-1.91a20,20,0,0,1-1.57-1.69c-1-1.18-1.5-1.81-1.74-2.16s-.7-1-1-1.46a10.52,10.52,0,0,1-.7-1.43,5.11,5.11,0,0,1-.14-4,4.47,4.47,0,0,1,2.47-2.38,1.09,1.09,0,0,1,1.39.35l2.48,4.24a1.44,1.44,0,0,1,.2.65,1.65,1.65,0,0,1-.36.89l-.76,1.28a1.26,1.26,0,0,0-.21.63,1.31,1.31,0,0,0,.3.7c.19.24,1.14,1.41,1.58,1.86a27.48,27.48,0,0,0,3,2.65.85.85,0,0,0,.62.15,1.93,1.93,0,0,0,.79-.32l.82-.5a2.71,2.71,0,0,1,1-.49,1.18,1.18,0,0,1,.76.22c.3.19,1.67,1,2,1.18s2,1.14,2.13,1.24a1,1,0,0,1,.53.84A2.54,2.54,0,0,1,44.45,30.13Z"/></svg>